<svg width="219" height="44" viewBox="0 0 219 44" fill="none" xmlns="http://www.w3.org/2000/svg">
<path d="M36.2133 29V15.4096H37.65V27.7574H45.2606V29H36.2133ZM51.5327 29.0971C50.4714 29.0971 49.5394 28.877 48.737 28.437C47.9345 27.984 47.3067 27.3691 46.8537 26.5926C46.4007 25.803 46.1742 24.9035 46.1742 23.8939C46.1742 22.8843 46.3878 21.9912 46.8149 21.2146C47.255 20.438 47.8504 19.8297 48.6011 19.3896C49.3647 18.9366 50.219 18.7101 51.1638 18.7101C52.1216 18.7101 52.9694 18.9301 53.7072 19.3702C54.4579 19.7973 55.0468 20.4057 55.4739 21.1952C55.9011 21.9718 56.1146 22.8714 56.1146 23.8939C56.1146 23.9586 56.1082 24.0298 56.0952 24.1074C56.0952 24.1722 56.0952 24.2434 56.0952 24.321H47.2226V23.292H55.3574L54.8138 23.6997C54.8138 22.962 54.652 22.3083 54.3285 21.7388C54.0178 21.1564 53.5907 20.7034 53.0471 20.3798C52.5035 20.0562 51.8757 19.8944 51.1638 19.8944C50.4649 19.8944 49.8371 20.0562 49.2806 20.3798C48.724 20.7034 48.2904 21.1564 47.9798 21.7388C47.6691 22.3213 47.5138 22.9879 47.5138 23.7386V23.9521C47.5138 24.7287 47.6821 25.4147 48.0186 26.0101C48.3681 26.5926 48.847 27.052 49.4553 27.3886C50.0766 27.7121 50.782 27.8739 51.5715 27.8739C52.1928 27.8739 52.7688 27.7639 53.2995 27.5439C53.8431 27.3238 54.309 26.9873 54.6973 26.5343L55.4739 27.4274C55.0209 27.971 54.4514 28.3852 53.7654 28.6699C53.0924 28.9547 52.3481 29.0971 51.5327 29.0971ZM65.0235 29V26.7479L64.9652 26.379V22.6125C64.9652 21.7453 64.7193 21.0787 64.2275 20.6128C63.7486 20.1468 63.0302 19.9138 62.0724 19.9138C61.4123 19.9138 60.7846 20.0238 60.1892 20.2439C59.5938 20.4639 59.089 20.7551 58.6748 21.1176L58.0535 20.0886C58.5713 19.6485 59.1925 19.312 59.9174 19.079C60.6422 18.8331 61.4058 18.7101 62.2083 18.7101C63.5285 18.7101 64.5446 19.0402 65.2565 19.7003C65.9813 20.3474 66.3437 21.3376 66.3437 22.6707V29H65.0235ZM61.5094 29.0971C60.7457 29.0971 60.0792 28.9741 59.5097 28.7282C58.9531 28.4693 58.526 28.1199 58.2283 27.6798C57.9306 27.2268 57.7817 26.709 57.7817 26.1266C57.7817 25.5959 57.9047 25.117 58.1506 24.6899C58.4095 24.2498 58.8237 23.9004 59.3932 23.6415C59.9756 23.3697 60.7522 23.2338 61.723 23.2338H65.237V24.2628H61.7618C60.7781 24.2628 60.0921 24.4375 59.7038 24.787C59.3284 25.1364 59.1408 25.57 59.1408 26.0878C59.1408 26.6702 59.3673 27.1362 59.8203 27.4856C60.2733 27.8351 60.9075 28.0098 61.723 28.0098C62.4995 28.0098 63.1661 27.8351 63.7227 27.4856C64.2922 27.1232 64.7064 26.6055 64.9652 25.9324L65.2759 26.8838C65.017 27.5568 64.564 28.094 63.9168 28.4952C63.2826 28.8965 62.4801 29.0971 61.5094 29.0971ZM70.0877 29V18.8072H71.408V21.5835L71.272 21.0981C71.5568 20.3215 72.0357 19.7326 72.7088 19.3314C73.3818 18.9172 74.2166 18.7101 75.2133 18.7101V20.0497C75.1615 20.0497 75.1097 20.0497 75.058 20.0497C75.0062 20.0368 74.9544 20.0303 74.9026 20.0303C73.8283 20.0303 72.987 20.3604 72.3787 21.0205C71.7704 21.6676 71.4662 22.5931 71.4662 23.7968V29H70.0877ZM82.9318 18.7101C83.7601 18.7101 84.4849 18.8719 85.1062 19.1955C85.7404 19.5061 86.2323 19.985 86.5818 20.6322C86.9442 21.2793 87.1254 22.0948 87.1254 23.0785V29H85.7469V23.2144C85.7469 22.1401 85.4751 21.3311 84.9315 20.7875C84.4008 20.2309 83.6501 19.9527 82.6794 19.9527C81.9545 19.9527 81.3203 20.1015 80.7767 20.3992C80.246 20.684 79.8318 21.1046 79.5341 21.6612C79.2494 22.2048 79.107 22.8649 79.107 23.6415V29H77.7286V18.8072H79.0488V21.6029L78.8352 21.0787C79.1588 20.341 79.6765 19.765 80.3884 19.3508C81.1003 18.9237 81.9481 18.7101 82.9318 18.7101ZM108.666 18.7101C109.495 18.7101 110.213 18.8719 110.821 19.1955C111.443 19.5061 111.921 19.985 112.258 20.6322C112.607 21.2793 112.782 22.0948 112.782 23.0785V29H111.404V23.2144C111.404 22.1401 111.145 21.3311 110.627 20.7875C110.122 20.2309 109.404 19.9527 108.472 19.9527C107.773 19.9527 107.165 20.1015 106.647 20.3992C106.142 20.684 105.747 21.1046 105.463 21.6612C105.191 22.2048 105.055 22.8649 105.055 23.6415V29H103.677V23.2144C103.677 22.1401 103.418 21.3311 102.9 20.7875C102.382 20.2309 101.657 19.9527 100.726 19.9527C100.04 19.9527 99.4376 20.1015 98.9199 20.3992C98.4022 20.684 98.0009 21.1046 97.7162 21.6612C97.4444 22.2048 97.3085 22.8649 97.3085 23.6415V29H95.93V18.8072H97.2502V21.5641L97.0367 21.0787C97.3473 20.341 97.8456 19.765 98.5316 19.3508C99.2306 18.9237 100.052 18.7101 100.997 18.7101C101.994 18.7101 102.842 18.9625 103.541 19.4673C104.24 19.9591 104.693 20.7034 104.9 21.7L104.356 21.4864C104.654 20.6581 105.178 19.9915 105.929 19.4867C106.692 18.969 107.605 18.7101 108.666 18.7101ZM120.675 29.0971C119.692 29.0971 118.805 28.877 118.015 28.437C117.239 27.984 116.624 27.3691 116.171 26.5926C115.718 25.803 115.491 24.9035 115.491 23.8939C115.491 22.8714 115.718 21.9718 116.171 21.1952C116.624 20.4186 117.239 19.8103 118.015 19.3702C118.792 18.9301 119.679 18.7101 120.675 18.7101C121.685 18.7101 122.578 18.9301 123.354 19.3702C124.144 19.8103 124.759 20.4186 125.199 21.1952C125.652 21.9718 125.878 22.8714 125.878 23.8939C125.878 24.9035 125.652 25.803 125.199 26.5926C124.759 27.3691 124.144 27.984 123.354 28.437C122.565 28.877 121.672 29.0971 120.675 29.0971ZM120.675 27.8739C121.413 27.8739 122.067 27.7121 122.636 27.3886C123.206 27.052 123.652 26.5861 123.976 25.9907C124.312 25.3824 124.481 24.6834 124.481 23.8939C124.481 23.0914 124.312 22.3925 123.976 21.7971C123.652 21.2017 123.206 20.7422 122.636 20.4186C122.067 20.0821 121.419 19.9138 120.695 19.9138C119.97 19.9138 119.323 20.0821 118.753 20.4186C118.184 20.7422 117.731 21.2017 117.394 21.7971C117.058 22.3925 116.889 23.0914 116.889 23.8939C116.889 24.6834 117.058 25.3824 117.394 25.9907C117.731 26.5861 118.184 27.052 118.753 27.3886C119.323 27.7121 119.963 27.8739 120.675 27.8739ZM128.693 29V18.8072H130.013V21.5835L129.877 21.0981C130.162 20.3215 130.641 19.7326 131.314 19.3314C131.987 18.9172 132.822 18.7101 133.818 18.7101V20.0497C133.766 20.0497 133.715 20.0497 133.663 20.0497C133.611 20.0368 133.559 20.0303 133.508 20.0303C132.433 20.0303 131.592 20.3604 130.984 21.0205C130.375 21.6676 130.071 22.5931 130.071 23.7968V29H128.693ZM140.568 29.0971C139.507 29.0971 138.575 28.877 137.772 28.437C136.97 27.984 136.342 27.3691 135.889 26.5926C135.436 25.803 135.21 24.9035 135.21 23.8939C135.21 22.8843 135.423 21.9912 135.85 21.2146C136.29 20.438 136.886 19.8297 137.637 19.3896C138.4 18.9366 139.254 18.7101 140.199 18.7101C141.157 18.7101 142.005 18.9301 142.743 19.3702C143.493 19.7973 144.082 20.4057 144.509 21.1952C144.937 21.9718 145.15 22.8714 145.15 23.8939C145.15 23.9586 145.144 24.0298 145.131 24.1074C145.131 24.1722 145.131 24.2434 145.131 24.321H136.258V23.292H144.393L143.849 23.6997C143.849 22.962 143.688 22.3083 143.364 21.7388C143.053 21.1564 142.626 20.7034 142.083 20.3798C141.539 20.0562 140.911 19.8944 140.199 19.8944C139.5 19.8944 138.873 20.0562 138.316 20.3798C137.76 20.7034 137.326 21.1564 137.015 21.7388C136.705 22.3213 136.549 22.9879 136.549 23.7386V23.9521C136.549 24.7287 136.718 25.4147 137.054 26.0101C137.404 26.5926 137.882 27.052 138.491 27.3886C139.112 27.7121 139.817 27.8739 140.607 27.8739C141.228 27.8739 141.804 27.7639 142.335 27.5439C142.879 27.3238 143.345 26.9873 143.733 26.5343L144.509 27.4274C144.056 27.971 143.487 28.3852 142.801 28.6699C142.128 28.9547 141.384 29.0971 140.568 29.0971Z" fill="black"/>
<path d="M169.128 21.6491H181.553M176.117 16.2129L181.553 21.6491L176.117 27.0852" stroke="url(#paint0_linear_652_70930)" stroke-width="1.55319" stroke-linecap="round" stroke-linejoin="round"/>
<rect x="1" y="1" width="216.66" height="42" rx="21" stroke="url(#paint1_linear_652_70930)" stroke-width="2"/>
<defs>
<linearGradient id="paint0_linear_652_70930" x1="180.872" y1="13.5772" x2="166.42" y2="14.4344" gradientUnits="userSpaceOnUse">
<stop stop-color="#00F0FF"/>
<stop offset="0.482483" stop-color="#5200FF"/>
<stop offset="1" stop-color="#FF2DF7"/>
</linearGradient>
<linearGradient id="paint1_linear_652_70930" x1="206.678" y1="-10.6667" x2="-32.6196" y2="51.0537" gradientUnits="userSpaceOnUse">
<stop stop-color="#5200FF"/>
<stop offset="1" stop-color="#FF2DF7"/>
</linearGradient>
</defs>
</svg>
