<svg xmlns="http://www.w3.org/2000/svg" width="96" height="107" viewBox="0 0 96 107" fill="none">
  <path fill-rule="evenodd" clip-rule="evenodd" d="M95.662 2.74668C95.662 4.2345 94.4024 5.44062 92.8485 5.44062C91.2946 5.44062 90.0349 4.2345 90.0349 2.74668C90.0349 1.25885 91.2946 0.0527344 92.8485 0.0527344C94.4024 0.0527344 95.662 1.25885 95.662 2.74668ZM80.6554 17.115C80.6554 18.6029 79.3958 19.809 77.8419 19.809C76.288 19.809 75.0283 18.6029 75.0283 17.115C75.0283 15.6272 76.288 14.4211 77.8419 14.4211C79.3958 14.4211 80.6554 15.6272 80.6554 17.115ZM92.8487 19.809C94.4026 19.809 95.6623 18.6029 95.6623 17.1151C95.6623 15.6273 94.4026 14.4211 92.8487 14.4211C91.2948 14.4211 90.0352 15.6273 90.0352 17.1151C90.0352 18.6029 91.2948 19.809 92.8487 19.809ZM5.62712 31.4833C5.62712 32.9712 4.36745 34.1773 2.81356 34.1773C1.25967 34.1773 5.3382e-09 32.9712 5.09697e-09 31.4833C4.85573e-09 29.9955 1.25967 28.7894 2.81356 28.7894C4.36745 28.7894 5.62712 29.9955 5.62712 31.4833ZM77.8419 34.1773C79.3958 34.1773 80.6554 32.9712 80.6554 31.4834C80.6554 29.9956 79.3958 28.7894 77.8419 28.7894C76.288 28.7894 75.0283 29.9956 75.0283 31.4834C75.0283 32.9712 76.288 34.1773 77.8419 34.1773ZM95.6623 31.4835C95.6623 32.9713 94.4026 34.1774 92.8487 34.1774C91.2948 34.1774 90.0352 32.9713 90.0352 31.4835C90.0352 29.9957 91.2948 28.7896 92.8487 28.7896C94.4026 28.7896 95.6623 29.9957 95.6623 31.4835ZM92.8487 48.5422C94.4026 48.5422 95.6623 47.3361 95.6623 45.8482C95.6623 44.3604 94.4026 43.1543 92.8487 43.1543C91.2948 43.1543 90.0352 44.3604 90.0352 45.8482C90.0352 47.3361 91.2948 48.5422 92.8487 48.5422ZM77.8419 62.9106C79.3958 62.9106 80.6554 61.7044 80.6554 60.2166C80.6554 58.7288 79.3958 57.5227 77.8419 57.5227C76.288 57.5227 75.0283 58.7288 75.0283 60.2166C75.0283 61.7044 76.288 62.9106 77.8419 62.9106ZM95.6623 60.2166C95.6623 61.7045 94.4026 62.9106 92.8487 62.9106C91.2948 62.9106 90.0352 61.7045 90.0352 60.2166C90.0352 58.7288 91.2948 57.5227 92.8487 57.5227C94.4026 57.5227 95.6623 58.7288 95.6623 60.2166ZM92.8487 77.279C94.4026 77.279 95.6623 76.0729 95.6623 74.5851C95.6623 73.0972 94.4026 71.8911 92.8487 71.8911C91.2948 71.8911 90.0352 73.0972 90.0352 74.5851C90.0352 76.0729 91.2948 77.279 92.8487 77.279ZM77.8419 91.6474C79.3958 91.6474 80.6554 90.4413 80.6554 88.9535C80.6554 87.4656 79.3958 86.2595 77.8419 86.2595C76.288 86.2595 75.0283 87.4656 75.0283 88.9535C75.0283 90.4413 76.288 91.6474 77.8419 91.6474ZM95.6623 88.9535C95.6623 90.4413 94.4026 91.6474 92.8487 91.6474C91.2948 91.6474 90.0352 90.4413 90.0352 88.9535C90.0352 87.4656 91.2948 86.2595 92.8487 86.2595C94.4026 86.2595 95.6623 87.4656 95.6623 88.9535ZM20.634 103.322C20.634 104.81 19.3743 106.016 17.8204 106.016C16.2665 106.016 15.0068 104.81 15.0068 103.322C15.0068 101.834 16.2665 100.628 17.8204 100.628C19.3743 100.628 20.634 101.834 20.634 103.322ZM32.8248 106.016C34.3787 106.016 35.6384 104.81 35.6384 103.322C35.6384 101.834 34.3787 100.628 32.8248 100.628C31.2709 100.628 30.0112 101.834 30.0112 103.322C30.0112 104.81 31.2709 106.016 32.8248 106.016ZM50.6447 103.322C50.6447 104.81 49.385 106.016 47.8311 106.016C46.2773 106.016 45.0176 104.81 45.0176 103.322C45.0176 101.834 46.2773 100.628 47.8311 100.628C49.385 100.628 50.6447 101.834 50.6447 103.322ZM95.6623 103.322C95.6623 104.81 94.4026 106.016 92.8487 106.016C91.2948 106.016 90.0352 104.81 90.0352 103.322C90.0352 101.834 91.2948 100.628 92.8487 100.628C94.4026 100.628 95.6623 101.834 95.6623 103.322ZM80.6554 103.322C80.6554 104.81 79.3958 106.016 77.8419 106.016C76.288 106.016 75.0283 104.81 75.0283 103.322C75.0283 101.834 76.288 100.628 77.8419 100.628C79.3958 100.628 80.6554 101.834 80.6554 103.322ZM62.8355 106.016C64.3894 106.016 65.6491 104.81 65.6491 103.322C65.6491 101.834 64.3894 100.628 62.8355 100.628C61.2816 100.628 60.022 101.834 60.022 103.322C60.022 104.81 61.2816 106.016 62.8355 106.016ZM2.81356 106.016C4.36745 106.016 5.62712 104.81 5.62712 103.322C5.62712 101.834 4.36745 100.628 2.81356 100.628C1.25967 100.628 1.65034e-08 101.834 1.67446e-08 103.322C1.69859e-08 104.81 1.25967 106.016 2.81356 106.016ZM65.6491 88.9535C65.6491 90.4413 64.3894 91.6474 62.8355 91.6474C61.2816 91.6474 60.022 90.4413 60.022 88.9535C60.022 87.4656 61.2816 86.2595 62.8355 86.2595C64.3894 86.2595 65.6491 87.4656 65.6491 88.9535ZM47.8311 91.6474C49.385 91.6474 50.6447 90.4413 50.6447 88.9535C50.6447 87.4656 49.385 86.2595 47.8311 86.2595C46.2773 86.2595 45.0176 87.4656 45.0176 88.9535C45.0176 90.4413 46.2773 91.6474 47.8311 91.6474ZM35.6384 88.9535C35.6384 90.4413 34.3787 91.6474 32.8248 91.6474C31.2709 91.6474 30.0112 90.4413 30.0112 88.9535C30.0112 87.4656 31.2709 86.2595 32.8248 86.2595C34.3787 86.2595 35.6384 87.4656 35.6384 88.9535ZM17.8204 91.6474C19.3743 91.6474 20.634 90.4413 20.634 88.9535C20.634 87.4656 19.3743 86.2595 17.8204 86.2595C16.2665 86.2595 15.0068 87.4656 15.0068 88.9535C15.0068 90.4413 16.2665 91.6474 17.8204 91.6474ZM5.62712 88.9535C5.62712 90.4413 4.36745 91.6474 2.81356 91.6474C1.25967 91.6474 1.46553e-08 90.4413 1.44141e-08 88.9535C1.41728e-08 87.4656 1.25967 86.2595 2.81356 86.2595C4.36745 86.2595 5.62712 87.4656 5.62712 88.9535ZM80.6554 74.5851C80.6554 76.0729 79.3958 77.279 77.8419 77.279C76.288 77.279 75.0283 76.0729 75.0283 74.5851C75.0283 73.0972 76.288 71.8911 77.8419 71.8911C79.3958 71.8911 80.6554 73.0972 80.6554 74.5851ZM62.8355 77.279C64.3894 77.279 65.6491 76.0729 65.6491 74.5851C65.6491 73.0972 64.3894 71.8911 62.8355 71.8911C61.2816 71.8911 60.022 73.0972 60.022 74.5851C60.022 76.0729 61.2816 77.279 62.8355 77.279ZM50.6447 74.5851C50.6447 76.0729 49.385 77.279 47.8311 77.279C46.2773 77.279 45.0176 76.0729 45.0176 74.5851C45.0176 73.0972 46.2773 71.8911 47.8311 71.8911C49.385 71.8911 50.6447 73.0972 50.6447 74.5851ZM32.8248 77.279C34.3787 77.279 35.6384 76.0729 35.6384 74.5851C35.6384 73.0972 34.3787 71.8911 32.8248 71.8911C31.2709 71.8911 30.0112 73.0972 30.0112 74.5851C30.0112 76.0729 31.2709 77.279 32.8248 77.279ZM20.634 74.5851C20.634 76.0729 19.3743 77.279 17.8204 77.279C16.2665 77.279 15.0068 76.0729 15.0068 74.5851C15.0068 73.0972 16.2665 71.8911 17.8204 71.8911C19.3743 71.8911 20.634 73.0972 20.634 74.5851ZM2.81356 77.279C4.36745 77.279 5.62712 76.0729 5.62712 74.5851C5.62712 73.0972 4.36745 71.8911 2.81356 71.8911C1.25967 71.8911 1.18441e-08 73.0972 1.20853e-08 74.5851C1.23266e-08 76.0729 1.25967 77.279 2.81356 77.279ZM65.6491 60.2166C65.6491 61.7044 64.3894 62.9106 62.8355 62.9106C61.2816 62.9106 60.022 61.7044 60.022 60.2166C60.022 58.7288 61.2816 57.5227 62.8355 57.5227C64.3894 57.5227 65.6491 58.7288 65.6491 60.2166ZM47.8311 62.9106C49.385 62.9106 50.6447 61.7045 50.6447 60.2166C50.6447 58.7288 49.385 57.5227 47.8311 57.5227C46.2773 57.5227 45.0176 58.7288 45.0176 60.2166C45.0176 61.7045 46.2773 62.9106 47.8311 62.9106ZM35.6384 60.2166C35.6384 61.7045 34.3787 62.9106 32.8248 62.9106C31.2709 62.9106 30.0112 61.7045 30.0112 60.2166C30.0112 58.7288 31.2709 57.5227 32.8248 57.5227C34.3787 57.5227 35.6384 58.7288 35.6384 60.2166ZM17.8204 62.9106C19.3743 62.9106 20.634 61.7045 20.634 60.2166C20.634 58.7288 19.3743 57.5227 17.8204 57.5227C16.2665 57.5227 15.0068 58.7288 15.0068 60.2166C15.0068 61.7045 16.2665 62.9106 17.8204 62.9106ZM5.62712 60.2166C5.62712 61.7044 4.36745 62.9106 2.81356 62.9106C1.25967 62.9106 9.99601e-09 61.7044 9.75478e-09 60.2166C9.51355e-09 58.7288 1.25967 57.5227 2.81356 57.5227C4.36745 57.5227 5.62712 58.7288 5.62712 60.2166ZM80.6554 45.8483C80.6554 47.3361 79.3958 48.5423 77.8419 48.5423C76.288 48.5423 75.0283 47.3361 75.0283 45.8483C75.0283 44.3605 76.288 43.1544 77.8419 43.1544C79.3958 43.1544 80.6554 44.3605 80.6554 45.8483ZM62.8355 48.5423C64.3894 48.5423 65.6491 47.3361 65.6491 45.8483C65.6491 44.3605 64.3894 43.1544 62.8355 43.1544C61.2816 43.1544 60.022 44.3605 60.022 45.8483C60.022 47.3361 61.2816 48.5423 62.8355 48.5423ZM50.6447 45.8482C50.6447 47.3361 49.385 48.5422 47.8311 48.5422C46.2773 48.5422 45.0176 47.3361 45.0176 45.8482C45.0176 44.3604 46.2773 43.1543 47.8311 43.1543C49.385 43.1543 50.6447 44.3604 50.6447 45.8482ZM32.8248 48.5422C34.3787 48.5422 35.6384 47.3361 35.6384 45.8482C35.6384 44.3604 34.3787 43.1543 32.8248 43.1543C31.2709 43.1543 30.0112 44.3604 30.0112 45.8482C30.0112 47.3361 31.2709 48.5422 32.8248 48.5422ZM20.634 45.8482C20.634 47.3361 19.3743 48.5422 17.8204 48.5422C16.2665 48.5422 15.0068 47.3361 15.0068 45.8482C15.0068 44.3604 16.2665 43.1543 17.8204 43.1543C19.3743 43.1543 20.634 44.3604 20.634 45.8482ZM2.81356 48.5423C4.36745 48.5423 5.62712 47.3361 5.62712 45.8483C5.62712 44.3605 4.36745 43.1544 2.81356 43.1544C1.25967 43.1544 7.18483e-09 44.3605 7.42606e-09 45.8483C7.66729e-09 47.3361 1.25967 48.5423 2.81356 48.5423ZM65.6491 31.4834C65.6491 32.9712 64.3894 34.1773 62.8355 34.1773C61.2816 34.1773 60.022 32.9712 60.022 31.4834C60.022 29.9956 61.2816 28.7894 62.8355 28.7894C64.3894 28.7894 65.6491 29.9956 65.6491 31.4834ZM47.8311 34.1774C49.385 34.1774 50.6447 32.9713 50.6447 31.4835C50.6447 29.9957 49.385 28.7896 47.8311 28.7896C46.2773 28.7896 45.0176 29.9957 45.0176 31.4835C45.0176 32.9713 46.2773 34.1774 47.8311 34.1774ZM35.6384 31.4835C35.6384 32.9713 34.3787 34.1774 32.8248 34.1774C31.2709 34.1774 30.0112 32.9713 30.0112 31.4835C30.0112 29.9957 31.2709 28.7896 32.8248 28.7896C34.3787 28.7896 35.6384 29.9957 35.6384 31.4835ZM17.8204 34.1774C19.3743 34.1774 20.634 32.9713 20.634 31.4835C20.634 29.9957 19.3743 28.7896 17.8204 28.7896C16.2665 28.7896 15.0068 29.9957 15.0068 31.4835C15.0068 32.9713 16.2665 34.1774 17.8204 34.1774ZM62.8355 19.809C64.3894 19.809 65.6491 18.6029 65.6491 17.115C65.6491 15.6272 64.3894 14.4211 62.8355 14.4211C61.2816 14.4211 60.022 15.6272 60.022 17.115C60.022 18.6029 61.2816 19.809 62.8355 19.809ZM50.6447 17.1151C50.6447 18.6029 49.385 19.809 47.8311 19.809C46.2773 19.809 45.0176 18.6029 45.0176 17.1151C45.0176 15.6273 46.2773 14.4211 47.8311 14.4211C49.385 14.4211 50.6447 15.6273 50.6447 17.1151ZM32.8248 19.809C34.3787 19.809 35.6384 18.6029 35.6384 17.1151C35.6384 15.6273 34.3787 14.4211 32.8248 14.4211C31.2709 14.4211 30.0112 15.6273 30.0112 17.1151C30.0112 18.6029 31.2709 19.809 32.8248 19.809ZM20.634 17.1151C20.634 18.6029 19.3743 19.809 17.8204 19.809C16.2665 19.809 15.0068 18.6029 15.0068 17.1151C15.0068 15.6273 16.2665 14.4211 17.8204 14.4211C19.3743 14.4211 20.634 15.6273 20.634 17.1151ZM2.81356 19.809C4.36745 19.809 5.62712 18.6029 5.62712 17.115C5.62712 15.6272 4.36745 14.4211 2.81356 14.4211C1.25967 14.4211 2.5261e-09 15.6272 2.76734e-09 17.115C3.00857e-09 18.6029 1.25967 19.809 2.81356 19.809ZM77.8419 5.44062C79.3958 5.44062 80.6555 4.2345 80.6555 2.74668C80.6555 1.25885 79.3958 0.0527344 77.8419 0.0527344C76.2881 0.0527344 75.0284 1.25885 75.0284 2.74668C75.0284 4.2345 76.2881 5.44062 77.8419 5.44062ZM65.649 2.74668C65.649 4.2345 64.3893 5.44062 62.8354 5.44062C61.2816 5.44062 60.0219 4.2345 60.0219 2.74668C60.0219 1.25885 61.2816 0.0527344 62.8354 0.0527344C64.3893 0.0527344 65.649 1.25885 65.649 2.74668ZM47.831 5.44062C49.3849 5.44062 50.6446 4.2345 50.6446 2.74668C50.6446 1.25885 49.3849 0.0527344 47.831 0.0527344C46.2771 0.0527344 45.0175 1.25885 45.0175 2.74668C45.0175 4.2345 46.2771 5.44062 47.831 5.44062ZM35.6381 2.74668C35.6381 4.2345 34.3784 5.44062 32.8245 5.44062C31.2706 5.44062 30.0109 4.2345 30.0109 2.74668C30.0109 1.25885 31.2706 0.0527344 32.8245 0.0527344C34.3784 0.0527344 35.6381 1.25885 35.6381 2.74668ZM17.8201 5.44062C19.374 5.44062 20.6336 4.2345 20.6336 2.74668C20.6336 1.25885 19.374 0.0527344 17.8201 0.0527344C16.2662 0.0527344 15.0065 1.25885 15.0065 2.74668C15.0065 4.2345 16.2662 5.44062 17.8201 5.44062ZM5.62736 2.74668C5.62736 4.2345 4.36768 5.44062 2.81379 5.44062C1.25991 5.44062 0.000231844 4.2345 0.000231844 2.74668C0.000231843 1.25885 1.25991 0.0527344 2.81379 0.0527344C4.36768 0.0527344 5.62736 1.25885 5.62736 2.74668Z" fill="#415082" fill-opacity="0.2"/>
</svg>